<svg preserveAspectRatio="none" width="100%" height="100%" overflow="visible" style="display: block;" viewBox="0 0 60 60" fill="none" xmlns="http://www.w3.org/2000/svg">
<g id="Frame">
<path id="Vector" d="M39.9999 4.998L34.2499 10.748C32.8757 12.15 32.106 14.0349 32.106 15.998C32.106 17.9611 32.8757 19.846 34.2499 21.248L38.7499 25.748C40.1519 27.1222 42.0368 27.8919 43.9999 27.8919C45.9631 27.8919 47.848 27.1222 49.2499 25.748L54.9999 19.998" stroke="var(--stroke-0, #6B5A52)" stroke-width="4" stroke-linecap="round"/>
<path id="Vector_2" d="M37.5015 37.5L8.25154 8.25C7.25374 9.22764 6.46105 10.3945 5.9199 11.6824C5.37875 12.9702 5.10001 14.3531 5.10001 15.75C5.10001 17.1469 5.37875 18.5298 5.9199 19.8176C6.46105 21.1055 7.25374 22.2724 8.25154 23.25L26.5015 41.5C28.2515 43.25 31.5015 43.25 33.5015 41.5L37.5015 37.5ZM37.5015 37.5L55.0015 55" stroke="var(--stroke-0, #6B5A52)" stroke-width="4" stroke-linecap="round"/>
<path id="Vector_3" d="M5.25 54.498L21.25 38.748" stroke="var(--stroke-0, #6B5A52)" stroke-width="4" stroke-linecap="round"/>
<path id="Vector_4" d="M47.5 12.498L30 29.998" stroke="var(--stroke-0, #6B5A52)" stroke-width="4" stroke-linecap="round"/>
</g>
</svg>
